<svg width="36" height="36" viewBox="0 0 36 36" fill="none" xmlns="http://www.w3.org/2000/svg">
<path d="M31.5 7.5H4.5" stroke="black" stroke-width="2" stroke-linecap="round" stroke-linejoin="round"/>
<path d="M18 14H4" stroke="black" stroke-width="2" stroke-linecap="round" stroke-linejoin="round"/>
<path d="M17.5 21H4.5" stroke="black" stroke-width="2" stroke-linecap="round" stroke-linejoin="round"/>
<path d="M17.5 28.25H4.5" stroke="black" stroke-width="2" stroke-linecap="round" stroke-linejoin="round"/>
<path d="M22.5 18.0045C22.4992 17.7383 22.5693 17.4767 22.703 17.2465C22.8367 17.0163 23.0293 16.8259 23.2609 16.6947C23.4925 16.5636 23.7549 16.4964 24.0211 16.5001C24.2873 16.5039 24.5476 16.5784 24.7755 16.716L32.271 21.2115C32.4942 21.3445 32.6789 21.5332 32.8073 21.7591C32.9356 21.9849 33.003 22.2403 33.003 22.5C33.003 22.7598 32.9356 23.0151 32.8073 23.241C32.6789 23.4669 32.4942 23.6555 32.271 23.7885L24.7755 28.284C24.5475 28.4217 24.287 28.4962 24.0207 28.4999C23.7544 28.5036 23.4919 28.4363 23.2602 28.305C23.0286 28.1736 22.836 27.9829 22.7024 27.7526C22.5688 27.5222 22.4989 27.2604 22.5 26.994V18.0045Z" stroke="black" stroke-width="2" stroke-linecap="round" stroke-linejoin="round"/>
</svg>
